<svg width="1300" height="1000" viewBox="0 0 1300 1000" fill="none" xmlns="http://www.w3.org/2000/svg">
<g clip-path="url(#clip0_3_3)">
<line y1="199.5" x2="1300" y2="199.5" stroke="url(#paint0_linear_3_3)"/>
<line y1="299.5" x2="1300" y2="299.5" stroke="url(#paint1_linear_3_3)"/>
<line y1="399.5" x2="1300" y2="399.5" stroke="url(#paint2_linear_3_3)"/>
<line y1="499.5" x2="1300" y2="499.5" stroke="url(#paint3_linear_3_3)"/>
<line y1="599.5" x2="1300" y2="599.5" stroke="url(#paint4_linear_3_3)"/>
<line y1="699.5" x2="1300" y2="699.5" stroke="url(#paint5_linear_3_3)"/>
<line y1="799.5" x2="1300" y2="799.5" stroke="url(#paint6_linear_3_3)"/>
<line x1="200.5" y1="2.18557e-08" x2="200.5" y2="1024" stroke="url(#paint7_linear_3_3)"/>
<line x1="300.5" y1="2.18557e-08" x2="300.5" y2="1024" stroke="url(#paint8_linear_3_3)"/>
<line x1="400.5" y1="2.18557e-08" x2="400.5" y2="1024" stroke="url(#paint9_linear_3_3)"/>
<line x1="500.5" y1="2.18557e-08" x2="500.5" y2="1024" stroke="url(#paint10_linear_3_3)"/>
<line x1="600.5" y1="2.18557e-08" x2="600.5" y2="1024" stroke="url(#paint11_linear_3_3)"/>
<line x1="700.5" y1="2.18557e-08" x2="700.5" y2="1024" stroke="url(#paint12_linear_3_3)"/>
<line x1="800.5" y1="2.18557e-08" x2="800.5" y2="1024" stroke="url(#paint13_linear_3_3)"/>
<line x1="900.5" y1="2.18557e-08" x2="900.5" y2="1024" stroke="url(#paint14_linear_3_3)"/>
<line x1="1000.5" y1="2.18557e-08" x2="1000.5" y2="1024" stroke="url(#paint15_linear_3_3)"/>
<line x1="1100.5" y1="2.18557e-08" x2="1100.5" y2="1024" stroke="url(#paint16_linear_3_3)"/>
<rect x="601" y="300" width="99" height="99" fill="#F5F5F5"/>
<rect x="1001" y="401" width="99" height="98" fill="#F5F5F5"/>
<rect x="801" y="600" width="99" height="99" fill="#F5F5F5"/>
<rect x="401" y="500" width="99" height="99" fill="#F5F5F5"/>
<rect x="200" y="800" width="99" height="99" fill="#F5F5F5"/>
<rect x="201" y="300" width="99" height="99" fill="#F4F4F4"/>
</g>
<defs>
<linearGradient id="paint0_linear_3_3" x1="0" y1="200.5" x2="1300" y2="200.5" gradientUnits="userSpaceOnUse">
<stop offset="0.02" stop-color="white"/>
<stop offset="0.355" stop-color="#D9D9D9"/>
<stop offset="1" stop-color="white"/>
</linearGradient>
<linearGradient id="paint1_linear_3_3" x1="0" y1="300.5" x2="1300" y2="300.5" gradientUnits="userSpaceOnUse">
<stop offset="0.02" stop-color="white"/>
<stop offset="0.565" stop-color="#D9D9D9"/>
<stop offset="1" stop-color="white"/>
</linearGradient>
<linearGradient id="paint2_linear_3_3" x1="0" y1="400.5" x2="1300" y2="400.5" gradientUnits="userSpaceOnUse">
<stop offset="0.02" stop-color="white"/>
<stop offset="0.565" stop-color="#D9D9D9"/>
<stop offset="1" stop-color="white"/>
</linearGradient>
<linearGradient id="paint3_linear_3_3" x1="0" y1="500.5" x2="1300" y2="500.5" gradientUnits="userSpaceOnUse">
<stop stop-color="#F2F1F1"/>
<stop offset="0.26" stop-color="#D9D9D9"/>
<stop offset="1" stop-color="white"/>
</linearGradient>
<linearGradient id="paint4_linear_3_3" x1="0" y1="600.5" x2="1300" y2="600.5" gradientUnits="userSpaceOnUse">
<stop offset="0.165" stop-color="#F2F1F1"/>
<stop offset="0.565" stop-color="#D9D9D9"/>
<stop offset="1" stop-color="white"/>
</linearGradient>
<linearGradient id="paint5_linear_3_3" x1="0" y1="700.5" x2="1300" y2="700.5" gradientUnits="userSpaceOnUse">
<stop offset="0.165" stop-color="#F2F1F1"/>
<stop offset="0.565" stop-color="#D9D9D9"/>
<stop offset="1" stop-color="white"/>
</linearGradient>
<linearGradient id="paint6_linear_3_3" x1="0" y1="800.5" x2="1300" y2="800.5" gradientUnits="userSpaceOnUse">
<stop stop-color="#F2F1F1"/>
<stop offset="0.705" stop-color="#D9D9D9"/>
<stop offset="1" stop-color="white"/>
</linearGradient>
<linearGradient id="paint7_linear_3_3" x1="199.5" y1="-2.18557e-08" x2="199.5" y2="1024" gradientUnits="userSpaceOnUse">
<stop offset="0.005" stop-color="white"/>
<stop offset="0.51" stop-color="#D9D9D9"/>
<stop offset="1" stop-color="white"/>
</linearGradient>
<linearGradient id="paint8_linear_3_3" x1="299.5" y1="-2.18557e-08" x2="299.5" y2="1024" gradientUnits="userSpaceOnUse">
<stop offset="0.005" stop-color="white"/>
<stop offset="0.51" stop-color="#D9D9D9"/>
<stop offset="1" stop-color="white"/>
</linearGradient>
<linearGradient id="paint9_linear_3_3" x1="399.5" y1="-2.18557e-08" x2="399.5" y2="1024" gradientUnits="userSpaceOnUse">
<stop offset="0.005" stop-color="white"/>
<stop offset="0.51" stop-color="#D9D9D9"/>
<stop offset="1" stop-color="white"/>
</linearGradient>
<linearGradient id="paint10_linear_3_3" x1="499.5" y1="-2.18557e-08" x2="499.5" y2="1024" gradientUnits="userSpaceOnUse">
<stop offset="0.005" stop-color="white"/>
<stop offset="0.51" stop-color="#D9D9D9"/>
<stop offset="1" stop-color="white"/>
</linearGradient>
<linearGradient id="paint11_linear_3_3" x1="599.5" y1="-2.18557e-08" x2="599.5" y2="1024" gradientUnits="userSpaceOnUse">
<stop offset="0.005" stop-color="white"/>
<stop offset="0.51" stop-color="#D9D9D9"/>
<stop offset="1" stop-color="white"/>
</linearGradient>
<linearGradient id="paint12_linear_3_3" x1="699.5" y1="-2.18557e-08" x2="699.5" y2="1024" gradientUnits="userSpaceOnUse">
<stop offset="0.005" stop-color="white"/>
<stop offset="0.51" stop-color="#D9D9D9"/>
<stop offset="1" stop-color="white"/>
</linearGradient>
<linearGradient id="paint13_linear_3_3" x1="799.5" y1="-2.18557e-08" x2="799.5" y2="1024" gradientUnits="userSpaceOnUse">
<stop offset="0.005" stop-color="white"/>
<stop offset="0.51" stop-color="#D9D9D9"/>
<stop offset="1" stop-color="white"/>
</linearGradient>
<linearGradient id="paint14_linear_3_3" x1="899.5" y1="-2.18557e-08" x2="899.5" y2="1024" gradientUnits="userSpaceOnUse">
<stop offset="0.005" stop-color="white"/>
<stop offset="0.51" stop-color="#D9D9D9"/>
<stop offset="1" stop-color="white"/>
</linearGradient>
<linearGradient id="paint15_linear_3_3" x1="999.5" y1="-2.18557e-08" x2="999.5" y2="1024" gradientUnits="userSpaceOnUse">
<stop offset="0.005" stop-color="white"/>
<stop offset="0.51" stop-color="#D9D9D9"/>
<stop offset="1" stop-color="white"/>
</linearGradient>
<linearGradient id="paint16_linear_3_3" x1="1099.5" y1="-2.18557e-08" x2="1099.5" y2="1024" gradientUnits="userSpaceOnUse">
<stop offset="0.005" stop-color="white"/>
<stop offset="0.51" stop-color="#D9D9D9"/>
<stop offset="1" stop-color="white"/>
</linearGradient>
<clipPath id="clip0_3_3">
<rect width="1300" height="1000" fill="white"/>
</clipPath>
</defs>
</svg>
